<?xml version="1.0" encoding="UTF-8"?>
<svg xmlns="http://www.w3.org/2000/svg" xmlns:xlink="http://www.w3.org/1999/xlink" width="375pt" height="374.999991pt" viewBox="0 0 375 374.999991" version="1.2">
<defs>
<clipPath id="clip1">
  <path d="M 40 21 L 303.753906 21 L 303.753906 333.617188 L 40 333.617188 Z M 40 21 "/>
</clipPath>
<clipPath id="clip2">
  <path d="M 233 238 L 321 238 L 321 334.160156 L 233 334.160156 Z M 233 238 "/>
</clipPath>
<clipPath id="clip3">
  <path d="M 215.652344 217.160156 L 338.652344 217.160156 L 338.652344 280 L 215.652344 280 Z M 215.652344 217.160156 "/>
</clipPath>
<clipPath id="clip4">
  <path d="M 54 238 L 141 238 L 141 334.160156 L 54 334.160156 Z M 54 238 "/>
</clipPath>
<clipPath id="clip5">
  <path d="M 36.003906 217.160156 L 159.003906 217.160156 L 159.003906 280 L 36.003906 280 Z M 36.003906 217.160156 "/>
</clipPath>
</defs>
<g id="surface1">
<g clip-path="url(#clip1)" clip-rule="nonzero">
<path style=" stroke:none;fill-rule:nonzero;fill:rgb(28.62854%,35.289001%,26.669312%);fill-opacity:1;" d="M 222.148438 194.445312 C 225.089844 190.566406 228.339844 186.941406 231.917969 183.699219 C 232.335938 184.011719 232.753906 184.3125 233.171875 184.625 C 233.292969 184.976562 233.433594 185.324219 233.585938 185.667969 C 232.242188 190.003906 226.972656 194.484375 222.148438 194.445312 Z M 210.777344 185.257812 C 209.296875 185.234375 207.8125 185.09375 206.429688 185 C 202.4375 184.746094 198.746094 184.375 195.058594 183.109375 C 195.03125 182.542969 195.828125 176.957031 195.828125 176.957031 C 199.832031 175.328125 202.175781 171.644531 203.609375 167.476562 C 209.335938 169.605469 214.625 172.300781 219.6875 175.375 C 216.515625 178.433594 213.535156 181.738281 210.777344 185.257812 Z M 204.445312 193.925781 C 204.445312 194.035156 204.460938 194.136719 204.476562 194.238281 L 204.433594 194.308594 C 201.253906 193.390625 198.394531 192.269531 196.742188 189.679688 C 199.625 190.164062 203.019531 190.710938 205.371094 192.066406 C 204.8125 192.507812 204.445312 193.175781 204.445312 193.925781 Z M 194.105469 214.535156 C 193.722656 214.761719 193.390625 215.09375 193.152344 215.542969 C 192.792969 215.023438 192.300781 214.601562 191.65625 214.3125 C 191.722656 213.507812 191.746094 212.867188 191.738281 212.5 C 191.574219 203.597656 189.992188 193.636719 185.667969 185.457031 C 186.199219 185.6875 186.738281 185.90625 187.289062 186.113281 C 188.238281 186.757812 189.230469 187.351562 190.246094 187.847656 C 191.269531 193.925781 195.691406 198.382812 201.558594 199.117188 C 198.730469 204.082031 196.25 209.257812 194.105469 214.535156 Z M 184.121094 176.960938 C 187.070312 174.234375 188.53125 168.074219 189.171875 163.144531 C 190.367188 163.417969 191.5625 163.707031 192.75 164.019531 C 191.808594 169.167969 190.402344 179.785156 190.378906 181.058594 C 188.65625 180.164062 186.695312 179.027344 184.78125 177.699219 C 184.554688 177.460938 184.335938 177.210938 184.121094 176.960938 Z M 176.957031 161.097656 C 179.433594 161.355469 181.914062 161.710938 184.371094 162.15625 C 183.8125 166.257812 182.734375 171.664062 181.140625 173.046875 C 178.769531 169.375 177.195312 165.230469 176.957031 161.097656 Z M 170.960938 216.449219 C 170.855469 216.351562 170.746094 216.257812 170.617188 216.191406 C 166.074219 208.472656 160.460938 201.429688 153.460938 195.734375 C 152.890625 195.265625 152.3125 194.820312 151.730469 194.375 C 151.132812 191.507812 150.414062 188.671875 149.199219 186.019531 C 148.5 184.492188 147.691406 183.074219 146.824219 181.71875 C 153.253906 179.824219 153.390625 168.734375 151.996094 162.84375 C 154.9375 161.816406 158.0625 161.140625 161.441406 160.871094 C 164.964844 160.589844 168.5 160.546875 172.03125 160.71875 C 172.175781 165.066406 173.75 172.316406 175.839844 176.238281 C 182.425781 188.605469 184.304688 215.941406 170.960938 216.449219 Z M 144.121094 177.195312 L 143.964844 177.195312 C 142.0625 174.757812 139.746094 172.828125 137.019531 171.800781 C 140.351562 168.988281 143.789062 166.589844 147.480469 164.753906 C 148.273438 169.082031 148.640625 177.542969 144.121094 177.195312 Z M 125.429688 182.257812 C 127.835938 180.132812 130.207031 177.933594 132.582031 175.753906 L 132.632812 175.757812 C 133.433594 175.765625 134.1875 175.882812 134.914062 176.09375 C 135.011719 176.195312 135.125 176.296875 135.257812 176.386719 C 139.007812 178.988281 141.46875 182.042969 143.234375 185.410156 C 143.796875 186.8125 144.261719 188.253906 144.617188 189.683594 C 138.609375 186.246094 132.144531 183.820312 125.429688 182.257812 Z M 107.128906 197.117188 C 108.417969 196.367188 109.65625 195.511719 110.839844 194.574219 C 113.023438 194.714844 115.191406 194.929688 117.339844 195.253906 C 114.152344 196.5625 110.773438 197.0625 107.128906 197.117188 Z M 200.578125 166.382812 C 199.738281 167.835938 198.507812 169.097656 196.664062 170.402344 C 196.945312 169.152344 197.160156 167.109375 197.410156 165.359375 C 198.46875 165.6875 199.53125 166.027344 200.578125 166.382812 Z M 297.355469 153.621094 C 299.242188 151.613281 299.964844 149.109375 300.824219 146.558594 C 302.863281 140.496094 303.738281 133.632812 302.488281 127.328125 C 300.835938 118.976562 294.46875 111.890625 286.445312 111.480469 C 289.078125 106.394531 291.113281 99.589844 289.308594 95.195312 C 288.496094 93.226562 287.25 91.472656 285.722656 90.078125 C 286.988281 88.445312 288.019531 86.625 288.707031 84.554688 C 291.875 75.070312 284.679688 66.03125 275.671875 64.839844 C 275.183594 64.652344 274.683594 64.515625 274.164062 64.425781 C 274.136719 64.25 274.117188 64.070312 274.082031 63.886719 C 273.082031 58.960938 267.34375 53.824219 262.816406 52.15625 C 259.054688 50.777344 250.023438 51.65625 247.390625 55.582031 C 247.4375 55.359375 247.464844 55.144531 247.464844 54.953125 C 247.390625 51.3125 246.671875 48.070312 245.046875 44.800781 C 241.773438 38.183594 234.875 33.367188 228.335938 30.394531 C 217.605469 25.5 205.523438 27.136719 198.664062 35.886719 C 194.246094 25.222656 181.4375 20.953125 169.988281 21.15625 C 159.746094 21.339844 151.625 27.902344 146.554688 36.339844 C 144.058594 35.71875 141.449219 35.664062 139.25 37.296875 C 137.808594 38.371094 136.789062 39.816406 135.980469 41.394531 C 125.8125 37.121094 113.101562 37.660156 105.234375 45.511719 C 98.824219 51.90625 92.402344 64.277344 94.832031 73.988281 C 86.714844 72.039062 77.964844 74.324219 72.191406 80.882812 C 65.1875 88.84375 67.492188 98.113281 72.539062 105.863281 C 61.472656 107.496094 53.695312 113.34375 50.6875 125.089844 C 49.117188 131.207031 46.824219 141.878906 51.433594 147.28125 C 51.316406 147.402344 51.210938 147.542969 51.109375 147.703125 L 51.078125 147.757812 C 35.980469 150.503906 36.859375 179.648438 52.535156 182.105469 L 52.582031 182.164062 C 53.515625 189.964844 57.394531 195.96875 65.644531 198.699219 C 70.195312 200.199219 75.671875 200.332031 80.355469 199.550781 C 81.402344 199.375 82.410156 199.074219 83.40625 198.71875 C 87.183594 201.066406 93.597656 200.941406 98.089844 200.25 C 98.449219 200.945312 99.109375 201.492188 100.082031 201.578125 C 109.46875 202.414062 117.421875 201.800781 124.515625 196.738281 C 131.851562 198.714844 138.761719 202.027344 144.765625 207.078125 C 155.105469 215.777344 161.714844 227.976562 166.132812 240.554688 C 168.269531 246.652344 169.953125 252.871094 171.320312 259.171875 C 171.050781 265.15625 171.996094 271.085938 172.582031 277.046875 C 173.246094 283.742188 172.597656 290.367188 171.480469 296.980469 C 169.296875 309.847656 164.769531 322.472656 157.8125 333.535156 L 220.664062 333.535156 C 220.566406 332.667969 220.039062 331.894531 218.957031 331.707031 C 211.441406 330.414062 206.433594 324.292969 202.910156 317.816406 C 202.46875 312.621094 201.246094 307.386719 200.714844 303.6875 C 198.65625 289.464844 197.71875 275.265625 198.425781 260.507812 C 199.257812 243.257812 203.738281 226.894531 211.570312 211.539062 C 213.800781 207.167969 216.292969 202.832031 219.097656 198.691406 C 225.585938 200.355469 233.144531 196.347656 236.675781 190.449219 C 242.605469 197.207031 253.546875 201.296875 262.382812 199.953125 C 264.433594 201.527344 267.496094 202.519531 269.722656 202.703125 C 273.40625 203.011719 276.558594 201.832031 279.265625 199.355469 C 280.992188 197.769531 282.226562 195.769531 283.023438 193.570312 C 283.765625 193.5 284.503906 193.460938 285.175781 193.359375 C 286.519531 193.183594 288.050781 192.03125 289.15625 191.292969 C 290.984375 190.078125 292.570312 188.113281 293.25 186.011719 C 293.730469 184.527344 293.914062 183.019531 293.953125 181.515625 C 295.050781 180.195312 296.027344 178.671875 296.855469 176.925781 C 300.199219 169.855469 299.640625 161.800781 293.628906 157.03125 C 294.878906 155.902344 296.199219 154.855469 297.355469 153.621094 "/>
</g>
<g clip-path="url(#clip2)" clip-rule="nonzero">
<path style=" stroke:none;fill-rule:nonzero;fill:rgb(65.489197%,56.858826%,51.368713%);fill-opacity:1;" d="M 320.332031 276.632812 Z M 320.332031 276.632812 L 277.164062 238.199219 L 233.96875 276.648438 L 233.96875 331.585938 C 233.96875 333.007812 235.109375 334.144531 236.523438 334.144531 L 263.515625 334.144531 L 263.515625 310.054688 C 263.515625 308.636719 264.648438 307.492188 266.058594 307.492188 L 288.242188 307.492188 C 289.652344 307.492188 290.785156 308.636719 290.785156 310.054688 L 290.785156 334.144531 L 317.785156 334.144531 C 319.199219 334.144531 320.332031 333.007812 320.332031 331.585938 L 320.332031 276.628906 Z M 233.96875 276.648438 Z M 233.96875 276.648438 "/>
</g>
<g clip-path="url(#clip3)" clip-rule="nonzero">
<path style=" stroke:none;fill-rule:nonzero;fill:rgb(65.489197%,56.858826%,51.368713%);fill-opacity:1;" d="M 276.914062 217.167969 L 215.652344 271.695312 L 222.105469 279.015625 L 277.164062 230.003906 L 332.210938 279.015625 L 338.652344 271.695312 L 277.402344 217.167969 L 277.164062 217.441406 Z M 276.914062 217.167969 "/>
</g>
<path style=" stroke:none;fill-rule:nonzero;fill:rgb(65.489197%,56.858826%,51.368713%);fill-opacity:1;" d="M 233.96875 225.015625 L 249.5 225.015625 L 249.363281 234.261719 L 233.96875 248.242188 Z M 233.96875 225.015625 "/>
<g clip-path="url(#clip4)" clip-rule="nonzero">
<path style=" stroke:none;fill-rule:nonzero;fill:rgb(65.489197%,56.858826%,51.368713%);fill-opacity:1;" d="M 140.6875 276.632812 Z M 140.6875 276.632812 L 97.519531 238.199219 L 54.324219 276.648438 L 54.324219 331.585938 C 54.324219 333.007812 55.464844 334.144531 56.875 334.144531 L 83.871094 334.144531 L 83.871094 310.054688 C 83.871094 308.636719 85.003906 307.492188 86.414062 307.492188 L 108.59375 307.492188 C 110.007812 307.492188 111.136719 308.636719 111.136719 310.054688 L 111.136719 334.144531 L 138.140625 334.144531 C 139.550781 334.144531 140.683594 333.007812 140.683594 331.585938 L 140.683594 276.628906 Z M 54.324219 276.648438 Z M 54.324219 276.648438 "/>
</g>
<g clip-path="url(#clip5)" clip-rule="nonzero">
<path style=" stroke:none;fill-rule:nonzero;fill:rgb(65.489197%,56.858826%,51.368713%);fill-opacity:1;" d="M 97.265625 217.167969 L 36.003906 271.695312 L 42.457031 279.015625 L 97.519531 230.003906 L 152.5625 279.015625 L 159.003906 271.695312 L 97.757812 217.167969 L 97.519531 217.441406 L 97.269531 217.167969 Z M 97.265625 217.167969 "/>
</g>
<path style=" stroke:none;fill-rule:nonzero;fill:rgb(65.489197%,56.858826%,51.368713%);fill-opacity:1;" d="M 54.324219 225.015625 L 69.855469 225.015625 L 69.71875 234.261719 L 54.324219 248.242188 Z M 54.324219 225.015625 "/>
<path style="fill:none;stroke-width:1;stroke-linecap:round;stroke-linejoin:miter;stroke:rgb(65.489197%,56.858826%,51.368713%);stroke-opacity:1;stroke-miterlimit:4;" d="M 0.499818 -0.0000436278 L 48.695751 -0.0000436278 " transform="matrix(7.500714,0,0,7.729468,3.01663,350.715181)"/>
</g>
</svg>
